<?xml version="1.0" standalone="no"?>
<!DOCTYPE svg PUBLIC "-//W3C//DTD SVG 20010904//EN"
 "http://www.w3.org/TR/2001/REC-SVG-20010904/DTD/svg10.dtd">
<svg version="1.0" xmlns="http://www.w3.org/2000/svg"
 width="216.000000pt" height="213.000000pt" viewBox="0 0 216.000000 213.000000"
 preserveAspectRatio="xMidYMid meet">

<g transform="translate(0.000000,213.000000) scale(0.100000,-0.100000)"
fill="#000000" stroke="none">
<path d="M611 1993 c-65 -23 -136 -98 -155 -164 -19 -62 -20 -134 -5 -212 10
-49 15 -57 34 -57 25 0 45 -20 69 -67 9 -18 20 -33 24 -33 4 0 15 27 24 59 11
37 30 73 51 95 l34 36 59 -21 c52 -18 67 -20 122 -11 84 14 148 52 157 92 15
67 -38 185 -107 239 -54 43 -109 61 -188 60 -41 0 -95 -8 -119 -16z"/>
<path d="M1621 1254 c-58 -29 -81 -65 -81 -128 0 -101 162 -170 310 -132 105
27 149 76 137 152 -15 88 -77 126 -217 132 -88 3 -99 1 -149 -24z"/>
<path d="M1407 1058 c-40 -84 -80 -159 -89 -166 -8 -7 -137 -31 -287 -54
l-271 -42 0 -191 c0 -189 0 -190 18 -160 25 40 49 58 67 51 19 -7 19 -36 -1
-64 -8 -12 -12 -22 -9 -22 4 0 43 19 87 41 60 32 82 39 91 30 9 -9 8 -16 -1
-32 -12 -18 -11 -19 6 -10 15 8 23 7 32 -4 6 -8 9 -18 6 -24 -3 -5 1 -11 9
-15 20 -7 19 -22 -5 -46 -16 -16 -17 -20 -4 -20 33 0 7 -36 -46 -63 -41 -22
-48 -27 -25 -23 17 3 93 15 170 26 77 11 150 25 163 30 16 7 45 57 102 176 87
181 95 210 56 200 -18 -4 -28 0 -40 19 -9 14 -14 29 -11 34 2 5 -1 11 -9 14
-8 3 -13 20 -12 44 1 34 4 39 36 49 41 14 48 29 25 54 -22 24 -11 44 16 30 18
-10 19 -6 19 134 0 83 -4 147 -10 151 -5 3 -43 -63 -83 -147z"/>
<path d="M1962 469 c-1 -8 -12 -25 -24 -36 -91 -83 -291 -82 -375 2 l-33 33 0
-28 c0 -70 97 -123 226 -124 65 0 89 4 129 25 62 31 88 65 82 110 -2 19 -5 27
-5 18z"/>
<path d="M726 414 c-4 -9 -4 -19 -1 -22 2 -3 7 3 11 12 4 9 4 19 1 22 -2 3 -7
-3 -11 -12z"/>
</g>
</svg>
